<?xml version="1.0" encoding="iso-8859-1"?>
<!-- Generator: Adobe Illustrator 19.0.0, SVG Export Plug-In . SVG Version: 6.00 Build 0)  -->
<svg version="1.1" id="Capa_1" xmlns="http://www.w3.org/2000/svg" xmlns:xlink="http://www.w3.org/1999/xlink" x="0px" y="0px"
	 viewBox="0 0 512 512" style="enable-background:new 0 0 512 512;" xml:space="preserve">
<path style="fill:#E8A44D;" d="M256,0c-4.585,0-8.303,3.716-8.303,8.303v99.632h16.605V8.303C264.303,3.716,260.585,0,256,0z"/>
<g>
	<rect x="211.719" y="74.724" style="fill:#992A2A;" width="88.562" height="71.304"/>
	<path style="fill:#992A2A;" d="M256,107.935V512c111.579,0,202.032-90.453,202.032-202.032S367.579,107.935,256,107.935z"/>
</g>
<g>
	<path style="fill:#DF3333;" d="M424.822,309.968c0-111.579-75.585-202.032-168.822-202.032
		c-111.579,0-202.032,90.453-202.032,202.032S144.421,512,256,512C349.237,512,424.822,421.547,424.822,309.968z"/>
	<path style="fill:#DF3333;" d="M303.049,83.027h-94.097c-4.585,0-8.303-3.716-8.303-8.303s3.717-8.303,8.303-8.303h94.097
		c4.585,0,8.303,3.716,8.303,8.303S307.634,83.027,303.049,83.027z"/>
</g>
<g>
</g>
<g>
</g>
<g>
</g>
<g>
</g>
<g>
</g>
<g>
</g>
<g>
</g>
<g>
</g>
<g>
</g>
<g>
</g>
<g>
</g>
<g>
</g>
<g>
</g>
<g>
</g>
<g>
</g>
</svg>
